<?xml version="1.0" standalone="no"?>
<!DOCTYPE svg PUBLIC "-//W3C//DTD SVG 20010904//EN"
 "http://www.w3.org/TR/2001/REC-SVG-20010904/DTD/svg10.dtd">
<svg version="1.0" xmlns="http://www.w3.org/2000/svg"
 width="2067.000000pt" height="2067.000000pt" viewBox="0 0 2067.000000 2067.000000"
 preserveAspectRatio="xMidYMid meet">
<metadata>
Created by potrace 1.14, written by Peter Selinger 2001-2017
</metadata>
<g transform="translate(0.000000,2067.000000) scale(0.100000,-0.100000)"
fill="#000000" stroke="none">
<path d="M8278 15435 c-2 -2 -41 -6 -88 -9 -47 -4 -101 -9 -120 -11 -19 -2
-60 -7 -90 -10 -52 -5 -181 -22 -225 -30 -73 -12 -114 -19 -225 -42 -69 -13
-152 -31 -185 -40 -33 -8 -68 -17 -78 -18 -67 -14 -436 -126 -502 -154 -11 -4
-58 -23 -105 -41 -154 -58 -253 -102 -425 -186 -262 -129 -387 -201 -625 -362
-127 -86 -411 -299 -430 -322 -3 -4 -43 -40 -90 -81 -171 -149 -413 -402 -555
-579 -33 -41 -62 -77 -65 -80 -24 -22 -320 -451 -320 -463 0 -3 -17 -34 -39
-68 -291 -481 -514 -1112 -596 -1684 -3 -22 -8 -51 -10 -65 -2 -14 -7 -52 -11
-85 -3 -33 -8 -73 -10 -90 -22 -169 -22 -750 0 -860 2 -11 7 -52 10 -90 4 -39
8 -80 10 -90 2 -11 7 -42 10 -68 4 -27 9 -57 11 -67 2 -9 6 -35 9 -56 42 -270
129 -581 251 -899 130 -339 338 -727 542 -1010 23 -33 51 -71 60 -85 225 -313
605 -706 913 -943 9 -7 36 -28 60 -48 262 -207 660 -446 1025 -614 193 -89
536 -215 724 -266 88 -25 297 -78 326 -83 11 -2 31 -7 45 -10 14 -3 36 -8 50
-10 33 -5 138 -25 170 -31 14 -3 43 -8 65 -11 22 -2 69 -9 105 -14 251 -35
404 -44 725 -44 287 0 407 6 625 34 41 5 98 12 125 15 89 10 360 61 475 90 30
8 66 16 80 19 172 36 559 166 805 271 137 58 431 205 550 275 50 29 102 60
117 69 16 9 28 19 28 22 0 6 -73 52 -162 104 -10 5 -125 75 -255 155 -131 80
-242 147 -248 150 -5 3 -35 21 -66 40 -30 19 -64 40 -75 47 -35 21 -375 227
-559 339 l-180 110 -95 -33 c-81 -28 -258 -78 -309 -88 -9 -2 -34 -8 -56 -14
-22 -6 -57 -13 -79 -17 -21 -3 -48 -8 -60 -10 -30 -6 -193 -32 -243 -38 -206
-26 -634 -27 -833 -1 -347 44 -680 127 -939 234 -41 17 -80 31 -87 31 -8 0
-14 5 -14 10 0 6 -7 10 -15 10 -26 0 -288 133 -430 219 -124 75 -346 233 -430
306 -16 15 -52 45 -79 68 -51 44 -188 179 -266 263 -235 252 -483 643 -605
949 -15 39 -31 79 -36 90 -62 138 -163 532 -184 715 -3 30 -8 71 -10 90 -18
144 -23 410 -11 575 49 666 327 1338 772 1862 53 62 303 316 369 374 324 285
757 530 1205 683 102 34 379 107 470 122 25 4 47 8 50 9 3 1 28 5 55 10 28 4
57 9 65 10 9 2 43 6 75 10 33 4 71 8 85 11 64 10 242 17 405 16 165 0 213 -3
340 -17 25 -3 66 -7 93 -10 55 -6 256 -41 322 -56 25 -5 54 -11 65 -13 11 -2
76 -20 145 -40 69 -20 132 -39 141 -41 96 -22 538 -217 664 -292 17 -10 57
-34 90 -54 33 -20 93 -58 134 -85 40 -27 85 -57 100 -67 25 -17 27 -17 44 5
11 13 33 39 51 58 17 19 67 78 111 130 44 52 87 101 95 110 8 9 35 40 60 70
25 29 50 58 55 64 88 91 615 720 609 726 -5 4 -36 27 -69 50 -549 385 -1113
646 -1750 810 -191 49 -207 53 -300 70 -27 5 -61 11 -75 14 -56 11 -147 26
-180 30 -19 2 -57 7 -85 11 -90 12 -109 14 -170 20 -33 3 -80 8 -105 11 -49 6
-727 14 -732 9z"/>
<path d="M4 10560 c2 -2674 6 -4863 8 -4865 3 -3 67 57 299 279 58 55 181 173
273 261 200 190 210 200 447 426 101 97 209 200 239 229 30 28 119 113 197
187 l143 135 -3 3346 -3 3345 -76 71 c-73 68 -227 214 -397 376 -43 41 -142
136 -220 210 -78 74 -168 160 -200 190 -101 97 -263 251 -421 400 -84 80 -176
168 -204 195 -28 28 -59 56 -69 64 -16 12 -16 -269 -13 -4849z"/>
<path d="M13630 15413 c0 -5 13 -21 28 -38 15 -16 59 -68 99 -115 228 -274
448 -536 573 -685 51 -60 111 -132 134 -160 22 -27 91 -108 151 -180 61 -71
148 -176 195 -232 l84 -103 2888 0 2888 0 0 760 0 760 -3520 0 c-1936 0 -3520
-3 -3520 -7z"/>
<path d="M13623 10540 l0 -760 3524 0 3523 0 0 760 0 760 -3523 0 -3524 0 0
-760z"/>
<path d="M15228 7201 c-11 -7 -39 -32 -62 -55 -37 -34 -163 -154 -350 -330
-23 -21 -99 -93 -171 -161 -71 -67 -146 -137 -165 -155 -31 -28 -89 -83 -335
-315 -29 -27 -113 -106 -186 -175 -73 -69 -178 -168 -233 -221 l-100 -96 3522
0 3522 0 0 758 0 759 -22 1 c-13 0 -1233 1 -2712 2 -2250 2 -2692 0 -2708 -12z"/>
</g>
</svg>
